<?xml version='1.0'?><svg xmlns="http://www.w3.org/2000/svg" viewBox="0 0 240 240" width="240" height="240">
			<rect id="frame-background" fill="#ffffff" x="8" y="8" width="224" height="224" />
			<!-- 
Bitly Generated QR Code
v5
37x37
-->
<svg  x='30.00' y='30.00' width='180.00' height='180.00' viewBox='0 0 592 592'
xmlns='http://www.w3.org/2000/svg'
xmlns:xlink='http://www.w3.org/1999/xlink'>
	<g id='background' style='fill:#ffffff' >
<rect x="0" y="0" width="592" height="592" />
</g>
<g id='pips' style='fill:#2a5bd7' >
<path d="M0,176L16,176L16,160L32,160L32,176L32,192L32,208L32,224L16,224L0,224L0,208L16,208L16,192L0,192L0,176M0,240L16,240L16,256L0,256L0,240M0,320L16,320L16,304L16,288L16,272L16,256L32,256L48,256L64,256L64,272L80,272L80,288L64,288L48,288L48,272L32,272L32,288L32,304L48,304L64,304L64,320L48,320L32,320L32,336L16,336L16,352L0,352L0,336L0,320M0,400L16,400L16,384L32,384L32,368L48,368L48,384L48,400L32,400L32,416L16,416L0,416L0,400M0,448L16,448L32,448L32,432L32,416L48,416L48,400L64,400L64,416L64,432L48,432L48,448L64,448L64,464L48,464L32,464L16,464L0,464L0,448M32,144L48,144L48,160L32,160L32,144M32,336L48,336L64,336L64,352L48,352L32,352L32,336M48,160L64,160L64,176L80,176L96,176L96,192L112,192L112,208L96,208L80,208L80,192L64,192L48,192L48,176L48,160M48,224L64,224L64,240L48,240L48,224M64,128L80,128L96,128L112,128L128,128L128,144L112,144L96,144L96,160L80,160L80,144L64,144L64,128M64,208L80,208L80,224L64,224L64,208M64,240L80,240L80,224L96,224L112,224L112,240L96,240L96,256L112,256L128,256L128,272L112,272L96,272L80,272L80,256L64,256L64,240M64,320L80,320L80,336L64,336L64,320M80,304L96,304L96,320L80,320L80,304M80,336L96,336L96,352L112,352L112,368L96,368L80,368L80,352L80,336M80,400L96,400L96,416L112,416L112,400L128,400L144,400L144,384L128,384L112,384L112,368L128,368L144,368L160,368L160,352L176,352L192,352L192,336L208,336L208,352L224,352L224,336L240,336L240,352L256,352L272,352L272,336L288,336L288,352L304,352L320,352L320,368L304,368L304,384L288,384L288,368L272,368L256,368L256,384L256,400L272,400L288,400L288,416L272,416L256,416L240,416L224,416L224,400L208,400L192,400L176,400L176,416L176,432L192,432L192,448L176,448L160,448L160,432L144,432L144,416L128,416L128,432L112,432L96,432L96,448L80,448L80,432L80,416L80,400M96,160L112,160L112,176L96,176L96,160M96,288L112,288L128,288L128,272L144,272L144,288L160,288L160,304L176,304L176,320L160,320L144,320L144,304L128,304L128,320L144,320L144,336L128,336L112,336L96,336L96,320L112,320L112,304L96,304L96,288M96,384L112,384L112,400L96,400L96,384M96,448L112,448L128,448L128,464L112,464L96,464L96,448M112,176L128,176L128,160L144,160L144,176L160,176L176,176L176,160L160,160L160,144L160,128L160,112L160,96L144,96L144,112L144,128L128,128L128,112L128,96L128,80L144,80L144,64L144,48L144,32L160,32L160,48L176,48L192,48L192,64L176,64L160,64L160,80L176,80L192,80L192,96L176,96L176,112L192,112L192,96L208,96L208,112L224,112L224,128L208,128L192,128L176,128L176,144L192,144L208,144L224,144L240,144L256,144L272,144L272,160L288,160L304,160L304,176L288,176L272,176L272,192L256,192L256,176L240,176L240,192L256,192L256,208L240,208L224,208L208,208L208,192L224,192L224,176L224,160L208,160L208,176L208,192L192,192L192,208L192,224L192,240L208,240L224,240L224,256L208,256L192,256L192,272L192,288L192,304L176,304L176,288L160,288L160,272L176,272L176,256L160,256L160,240L144,240L144,224L160,224L176,224L176,208L176,192L160,192L160,208L144,208L128,208L128,192L112,192L112,176M112,208L128,208L128,224L112,224L112,208M128,16L144,16L144,32L128,32L128,16M128,432L144,432L144,448L128,448L128,432M128,464L144,464L160,464L160,480L176,480L176,496L192,496L208,496L224,496L240,496L240,480L256,480L256,464L272,464L272,448L256,448L240,448L240,464L240,480L224,480L208,480L192,480L176,480L176,464L192,464L192,448L208,448L224,448L224,432L240,432L256,432L272,432L288,432L304,432L320,432L320,448L320,464L304,464L288,464L288,480L272,480L272,496L256,496L256,512L272,512L272,528L256,528L240,528L240,512L224,512L224,528L208,528L208,544L192,544L192,528L192,512L176,512L176,528L160,528L160,512L160,496L144,496L144,512L144,528L128,528L128,512L128,496L128,480L128,464M144,256L160,256L160,272L144,272L144,256M144,336L160,336L160,352L144,352L144,336M144,544L160,544L160,560L160,576L144,576L144,560L144,544M176,0L192,0L192,16L192,32L176,32L176,16L176,0M176,320L192,320L192,336L176,336L176,320M192,368L192,384L208,384L224,384L240,384L240,368L224,368L208,368L192,368M176,560L192,560L192,576L192,592L176,592L176,576L176,560M192,304L208,304L208,320L192,320L192,304M208,0L224,0L240,0L240,16L224,16L208,16L208,0M208,64L224,64L224,48L240,48L240,64L256,64L256,80L272,80L272,64L288,64L288,80L288,96L272,96L272,112L256,112L256,96L240,96L240,80L224,80L208,80L208,64M208,272L224,272L224,288L224,304L208,304L208,288L208,272M208,320L224,320L224,336L208,336L208,320M208,544L224,544L224,528L240,528L240,544L256,544L256,560L272,560L272,576L256,576L256,592L240,592L224,592L224,576L240,576L240,560L224,560L208,560L208,544M224,96L240,96L240,112L224,112L224,96M224,224L240,224L256,224L256,240L240,240L224,240L224,224M224,304L240,304L240,320L224,320L224,304M240,112L256,112L256,128L240,128L240,112M240,256L256,256L256,272L240,272L240,256M240,288L256,288L256,304L240,304L240,288M240,320L256,320L256,304L272,304L272,320L272,336L256,336L240,336L240,320M256,0L272,0L288,0L304,0L320,0L336,0L352,0L368,0L368,16L384,16L384,0L400,0L400,16L400,32L400,48L416,48L416,32L432,32L448,32L448,16L432,16L432,0L448,0L464,0L464,16L464,32L464,48L464,64L448,64L448,80L432,80L432,64L416,64L400,64L384,64L384,48L368,48L368,32L352,32L352,48L352,64L336,64L320,64L320,48L320,32L336,32L336,16L320,16L320,32L304,32L304,16L288,16L288,32L288,48L272,48L272,64L256,64L256,48L256,32L272,32L272,16L256,16L256,0M256,208L272,208L272,224L256,224L256,208M256,272L272,272L272,288L256,288L256,272M272,112L288,112L288,96L304,96L304,112L304,128L288,128L288,144L272,144L272,128L272,112M272,240L288,240L288,224L288,208L304,208L320,208L320,192L336,192L336,208L352,208L352,224L336,224L320,224L320,240L320,256L320,272L336,272L336,288L320,288L320,304L304,304L288,304L288,288L288,272L304,272L304,256L288,256L288,272L272,272L272,256L272,240M272,496L288,496L304,496L304,512L288,512L272,512L272,496M272,544L288,544L288,560L272,560L272,544M272,576L288,576L288,592L272,592L272,576M288,320L304,320L304,336L288,336L288,320M288,560L304,560L320,560L320,576L320,592L304,592L304,576L288,576L288,560M304,64L320,64L320,80L336,80L336,96L336,112L352,112L352,128L336,128L320,128L320,112L320,96L304,96L304,80L304,64M304,176L320,176L320,192L304,192L304,176M304,384L320,384L320,368L336,368L336,384L352,384L352,400L336,400L336,416L336,432L320,432L320,416L304,416L304,400L304,384M304,480L320,480L320,496L304,496L304,480M304,528L320,528L320,544L304,544L304,528M320,160L336,160L336,144L352,144L352,128L368,128L384,128L400,128L400,112L416,112L416,128L416,144L400,144L384,144L368,144L368,160L352,160L352,176L368,176L368,160L384,160L400,160L416,160L416,144L432,144L432,160L448,160L464,160L464,144L480,144L480,160L480,176L480,192L496,192L512,192L512,208L496,208L480,208L480,224L464,224L448,224L448,208L448,192L448,176L432,176L432,192L416,192L416,176L400,176L400,192L400,208L384,208L384,224L384,240L368,240L352,240L352,224L368,224L368,208L368,192L352,192L336,192L336,176L320,176L320,160M320,304L336,304L336,320L320,320L320,304M320,336L336,336L336,320L352,320L368,320L368,304L368,288L368,272L384,272L384,256L400,256L400,272L416,272L432,272L432,256L432,240L416,240L416,224L400,224L400,208L416,208L432,208L432,224L448,224L448,240L464,240L464,256L448,256L448,272L464,272L464,288L480,288L496,288L496,272L480,272L464,272L464,256L480,256L480,240L480,224L496,224L496,240L496,256L512,256L512,272L528,272L528,256L544,256L544,240L528,240L528,224L544,224L544,208L544,192L544,176L560,176L576,176L576,192L592,192L592,208L576,208L560,208L560,224L576,224L576,240L576,256L592,256L592,272L576,272L560,272L560,288L544,288L544,304L528,304L528,288L512,288L512,304L496,304L480,304L464,304L464,320L448,320L448,336L448,352L464,352L464,368L464,384L480,384L496,384L496,400L480,400L480,416L480,432L464,432L464,416L448,416L448,432L464,432L464,448L480,448L480,432L496,432L496,416L512,416L512,400L528,400L528,384L544,384L544,368L560,368L576,368L576,384L560,384L560,400L576,400L576,416L560,416L544,416L544,432L560,432L560,448L576,448L576,464L576,480L560,480L560,464L544,464L544,480L560,480L560,496L560,512L560,528L560,544L544,544L528,544L528,528L512,528L512,544L512,560L512,576L512,592L496,592L496,576L496,560L480,560L480,544L480,528L464,528L464,544L448,544L448,528L448,512L448,496L448,480L432,480L416,480L416,496L400,496L400,480L400,464L416,464L432,464L448,464L448,448L432,448L432,432L432,416L432,400L416,400L416,416L416,432L400,432L384,432L384,448L368,448L368,464L352,464L352,448L336,448L336,432L352,432L368,432L368,416L384,416L384,400L400,400L400,384L416,384L416,368L432,368L432,384L448,384L448,368L432,368L432,352L432,336L432,320L432,304L432,288L416,288L400,288L384,288L384,304L384,320L400,320L400,336L416,336L416,352L400,352L384,352L384,336L368,336L368,352L352,352L352,368L336,368L336,352L320,352L320,336M320,512L336,512L336,496L352,496L352,512L352,528L336,528L320,528L320,512M336,256L352,256L368,256L368,272L352,272L336,272L336,256M336,288L352,288L352,304L336,304L336,288M336,464L352,464L352,480L336,480L336,464M336,544L352,544L352,560L352,576L336,576L336,560L336,544M352,64L368,64L384,64L384,80L384,96L368,96L368,112L352,112L352,96L352,80L352,64M352,368L368,368L384,368L400,368L400,384L384,384L368,384L352,384L352,368M368,464L384,464L384,480L384,496L400,496L400,512L400,528L384,528L384,512L368,512L368,496L368,480L368,464M368,576L384,576L384,592L368,592L368,576M384,96L400,96L400,112L384,112L384,96M384,448L400,448L400,464L384,464L384,448M384,560L400,560L400,576L384,576L384,560M416,96L432,96L432,112L416,112L416,96M416,528L432,528L432,544L416,544L416,528M416,560L432,560L448,560L448,576L448,592L432,592L432,576L416,576L416,560M432,128L448,128L448,144L432,144L432,128M448,80L464,80L464,96L464,112L448,112L448,96L448,80M464,464L464,480L464,496L464,512L480,512L496,512L512,512L512,496L512,480L512,464L496,464L480,464L464,464M464,320L480,320L496,320L496,336L480,336L464,336L464,320M464,560L480,560L480,576L480,592L464,592L464,576L464,560M480,128L496,128L512,128L512,144L528,144L544,144L560,144L560,128L576,128L576,144L592,144L592,160L576,160L560,160L544,160L528,160L528,176L512,176L512,160L496,160L496,144L480,144L480,128M480,352L496,352L496,368L480,368L480,352M480,480L496,480L496,496L480,496L480,480M496,368L512,368L512,384L496,384L496,368M512,208L528,208L528,224L512,224L512,208M512,240L528,240L528,256L512,256L512,240M512,304L528,304L528,320L512,320L512,304M512,336L528,336L544,336L544,320L544,304L560,304L576,304L576,320L560,320L560,336L560,352L544,352L528,352L512,352L512,336M528,496L528,512L544,512L544,496L528,496M576,432L592,432L592,448L576,448L576,432Z" />
<path d="M4.7253,9.0689C6.179,9.0436 6.4149,7.6154 6.4149,6.769C6.4149,5.5163 5.775,5.0788 5,5C4.0425,5.4242 3.3403,6.146 3.2555,7.2606C3.2416,7.4443 3.237,7.6894 3.2516,7.9757C3.2906,8.7383 3.8493,9.0843 4.7253,9.0689 M 12.2447 10.8068 C 11.2047 10.8068 10.1118 10.1673 10.06 8.9707 C 8.8774 10.2223 7.0538 10.8186 4.7253 10.8186 C 2.3769 10.8186 1.396 9.2175 1.396 7.9703 C 1.4554 3.8126 1.3605 2.255 1.341 1.9353 C 1.3393 1.907 1.3381 1.8884 1.3377 1.8785 L 1.3373 1.8677 C 1.3313 1.7096 1.3224 1.4733 1.172 1.4572 C 1.0786 1.4472 1.0183 1.4757 0.911 1.6094 C 0.75 1.8233 0.425 1.908 0.2273 1.7937 C -0.0116 1.6555 -0.0562 1.3505 0.0647 1.0697 C 0.4002 0.3212 0.9379 -0.01 1.6625 0.0003 C 2.9146 0.0182 3.2738 0.8359 3.2738 1.8575 C 3.2738 1.8575 3.246 3.3292 3.246 4.1579 C 3.689 3.7969 4.3397 3.4098 5.4266 3.4098 C 7.6899 3.4098 9.1267 6.2118 7.6503 8.8925 C 9.5428 8.0197 9.9378 6.5164 10.0112 5.0238 L 10.0043 4.5203 C 10.0043 3.9552 10.3688 3.4767 10.9361 3.4767 C 11.5034 3.4767 11.8802 3.9877 11.86 4.5271 C 11.7919 6.3438 11.7644 7.5395 11.7644 8.1722 C 11.7644 8.5384 11.9642 9.0996 12.5555 9.0996 C 13.7134 9.0996 14.094 8.1922 14.1838 6.0595 C 14.1885 5.2642 14.1927 4.5997 14.1927 4.5997 C 13.6679 4.5997 13.4094 4.324 13.4094 3.9795 C 13.4094 3.635 13.683 3.3163 14.1321 3.3163 C 14.1321 3.3163 14.133 2.1182 14.133 1.622 C 14.133 1.0569 14.5715 0.5883 15.1388 0.5883 C 15.7062 0.5883 16.1567 1.0569 16.1567 1.622 C 16.1567 1.8095 16.1495 2.028 16.1416 2.2695 C 16.1315 2.5784 16.1201 2.9246 16.121 3.2909 L 16.2032 3.2905 H 16.2032 C 16.357 3.29 16.7051 3.2888 17.1681 3.2834 C 17.7198 3.2769 17.9445 3.5851 17.9445 3.9709 C 17.9445 4.3567 17.6475 4.626 17.2602 4.6276 C 16.9012 4.6291 16.1083 4.6247 16.1083 4.6247 C 16.0723 5.7674 16.0382 7.1451 16.0382 8.2475 C 16.0382 8.6451 16.3126 9.0995 16.9767 9.0995 C 18.3163 9.0995 18.8167 7.9092 18.9173 5.6498 C 18.9095 4.0766 18.8907 3.1653 18.8765 2.4785 V 2.4785 C 18.8666 1.9969 18.859 1.6258 18.859 1.2143 C 18.859 0.6493 19.3295 0.1442 19.8967 0.1442 C 20.4641 0.1442 20.8826 0.5977 20.8826 1.1627 C 20.8826 1.598 20.8651 2.1069 20.8413 2.8009 V 2.8009 V 2.801 C 20.801 3.9747 20.7425 5.6778 20.7195 8.4504 C 20.7165 8.8195 20.8967 9.0795 21.3748 9.0795 C 22.6524 9.0795 23.0066 7.6955 23.119 5.7625 C 23.1197 5.6695 23.1205 5.5785 23.1214 5.4891 L 23.1214 5.4887 C 23.1231 5.3054 23.1247 5.1289 23.1247 4.9561 C 23.1247 4.391 23.5011 3.9337 24.0686 3.9337 C 24.6359 3.9337 24.9694 4.4022 24.9694 4.9673 C 24.9694 5.3698 24.9562 5.7464 24.9427 6.1348 C 24.9307 6.4777 24.9184 6.8299 24.9146 7.2176 C 24.9047 8.2151 25.2455 9.0938 26.0756 9.0914 C 26.8726 9.0891 27.7479 8.7536 27.7691 7.045 C 27.7751 6.5701 27.7683 6.2053 27.7615 5.8371 V 5.837 V 5.8369 V 5.8368 C 27.7564 5.5642 27.7513 5.2897 27.7513 4.9673 C 27.7513 4.4022 28.1451 3.9337 28.7125 3.9337 C 29.2795 3.9337 29.6737 4.4022 29.6737 4.9673 C 29.6737 5.3051 29.6614 5.6415 29.6477 6.0145 V 6.0145 V 6.0146 V 6.0146 C 29.6307 6.4783 29.6117 6.9984 29.6117 7.6477 C 29.6117 7.6477 29.5769 10.0141 29.66 10.5378 C 29.9203 10.4512 30.2958 10.1968 30.6935 9.5802 C 30.9337 9.208 31.3928 9.1282 31.6758 9.293 C 32.0653 9.52 32.0514 9.9635 31.9058 10.2875 C 31.5298 11.1239 31.0409 11.6358 29.8047 12.0595 C 29.8086 13.4782 29.7098 15.5713 27.0868 15.9496 C 24.8405 16.2735 23.8244 14.9708 23.8211 13.8623 C 23.8157 12.112 25.5649 11.6022 28.0897 10.9665 L 28.0087 10.099 C 28.0087 10.099 27.4464 10.8364 26.0215 10.8008 C 24.9223 10.7733 24.1663 10.2543 23.7077 9.5213 C 23.1787 10.3901 22.3495 10.8105 21.1004 10.8105 C 20.2775 10.8105 19.4934 10.3758 19.1051 9.7457 C 18.5325 10.4308 17.7339 10.8015 16.6607 10.8015 C 15.7256 10.8015 15.0346 10.4786 14.6209 9.9746 C 14.087 10.5712 13.318 10.8068 12.2447 10.8068 Z M 28.2548 12.363 C 26.9786 12.6385 25.3798 13.0407 25.3983 13.8266 C 25.4158 14.5636 26.1767 14.6977 26.8111 14.5666 C 28.1286 14.2943 28.2816 13.5015 28.2548 12.363 Z M 11.9704 1.6249 C 11.9704 1.0544 11.5073 0.5932 10.9347 0.5932 C 10.3619 0.5932 9.8989 1.0544 9.8989 1.6249 C 9.8989 2.1953 10.3619 2.6566 10.9347 2.6566 C 11.5073 2.6566 11.9704 2.1953 11.9704 1.6249 Z" fill='#2a5bd7' transform='translate(520.000000, 556.000000) scale(2.250000, 2.250000)' />
</g>
<g id='corners-outer-1' style='fill:#2a5bd7' >
<path d="M0,0L16,0L32,0L48,0L64,0L80,0L96,0L112,0L112,16L112,32L112,48L112,64L112,80L112,96L112,112L96,112L80,112L64,112L48,112L32,112L16,112L0,112L0,96L0,80L0,64L0,48L0,32L0,16L0,0M16,16L16,32L16,48L16,64L16,80L16,96L32,96L48,96L64,96L80,96L96,96L96,80L96,64L96,48L96,32L96,16L80,16L64,16L48,16L32,16L16,16Z" />
</g>
<g id='corners-inner-1' style='fill:#2a5bd7' >
<path d="M32,32L48,32L64,32L80,32L80,48L80,64L80,80L64,80L48,80L32,80L32,64L32,48L32,32Z" />
</g>
<g id='corners-outer-2' style='fill:#2a5bd7' >
<path d="M480,0L496,0L512,0L528,0L544,0L560,0L576,0L592,0L592,16L592,32L592,48L592,64L592,80L592,96L592,112L576,112L560,112L544,112L528,112L512,112L496,112L480,112L480,96L480,80L480,64L480,48L480,32L480,16L480,0M496,16L496,32L496,48L496,64L496,80L496,96L512,96L528,96L544,96L560,96L576,96L576,80L576,64L576,48L576,32L576,16L560,16L544,16L528,16L512,16L496,16Z" />
</g>
<g id='corners-inner-2' style='fill:#2a5bd7' >
<path d="M512,32L528,32L544,32L560,32L560,48L560,64L560,80L544,80L528,80L512,80L512,64L512,48L512,32Z" />
</g>
<g id='corners-outer-3' style='fill:#2a5bd7' >
<path d="M0,480L16,480L32,480L48,480L64,480L80,480L96,480L112,480L112,496L112,512L112,528L112,544L112,560L112,576L112,592L96,592L80,592L64,592L48,592L32,592L16,592L0,592L0,576L0,560L0,544L0,528L0,512L0,496L0,480M16,496L16,512L16,528L16,544L16,560L16,576L32,576L48,576L64,576L80,576L96,576L96,560L96,544L96,528L96,512L96,496L80,496L64,496L48,496L32,496L16,496Z" />
</g>
<g id='corners-inner-3' style='fill:#2a5bd7' >
<path d="M32,512L48,512L64,512L80,512L80,528L80,544L80,560L64,560L48,560L32,560L32,544L32,528L32,512Z" />
</g>
</svg>
<g id="frame-sections">
				<path fill="#000000" d="M222,10a8,8,0,0,1,8,8V222a8,8,0,0,1-8,8H18a8,8,0,0,1-8-8V18a8,8,0,0,1,8-8H222m0-10H18A18,18,0,0,0,0,18V222a18,18,0,0,0,18,18H222a18,18,0,0,0,18-18V18A18,18,0,0,0,222,0Z"/>
			</g>
			</svg>